<svg xmlns="http://www.w3.org/2000/svg" width="1600" height="400" viewBox="0 0 1600 400" role="img" aria-label="PyFlashLogger banner">
  <defs>
    <linearGradient id="bg" x1="0" y1="0" x2="1" y2="1">
      <stop offset="0%" stop-color="#111827"/>
      <stop offset="100%" stop-color="#1e40af"/>
    </linearGradient>
  </defs>
  <rect width="1600" height="400" fill="url(#bg)"/>
  <circle cx="250" cy="340" r="180" fill="#93c5fd" fill-opacity="0.12"/>
  <circle cx="1460" cy="70" r="160" fill="#dbeafe" fill-opacity="0.16"/>

  <g transform="translate(1210 88)">
    <rect x="0" y="0" width="280" height="224" rx="24" fill="#eff6ff" fill-opacity="0.16" stroke="#bfdbfe" stroke-opacity="0.35"/>
    <rect x="24" y="24" width="232" height="176" rx="14" fill="#111827" fill-opacity="0.85"/>
    <circle cx="48" cy="45" r="5" fill="#fca5a5"/>
    <circle cx="66" cy="45" r="5" fill="#fcd34d"/>
    <circle cx="84" cy="45" r="5" fill="#86efac"/>

    <path d="M48 84l20 16-20 16" fill="none" stroke="#93c5fd" stroke-width="8" stroke-linecap="round" stroke-linejoin="round"/>
    <rect x="82" y="112" width="70" height="8" rx="4" fill="#93c5fd"/>

    <rect x="48" y="146" width="180" height="10" rx="5" fill="#bfdbfe" fill-opacity="0.9"/>
    <rect x="48" y="166" width="148" height="10" rx="5" fill="#bfdbfe" fill-opacity="0.75"/>
    <rect x="48" y="186" width="122" height="10" rx="5" fill="#bfdbfe" fill-opacity="0.6"/>
  </g>

  <text x="90" y="206" font-family="Segoe UI, Arial, sans-serif" font-size="74" font-weight="700" fill="#eff6ff">PyFlashLogger</text>
  <text x="92" y="264" font-family="Segoe UI, Arial, sans-serif" font-size="30" fill="#dbeafe">Fast, colorized logging with structured output and runtime control.</text>
</svg>
